<?xml version="1.0" standalone="no"?>
<!DOCTYPE svg PUBLIC "-//W3C//DTD SVG 20010904//EN"
 "http://www.w3.org/TR/2001/REC-SVG-20010904/DTD/svg10.dtd">
<svg version="1.0" xmlns="http://www.w3.org/2000/svg"
 width="250.000000pt" height="250.000000pt" viewBox="0 0 250.000000 250.000000"
 preserveAspectRatio="xMidYMid meet">
<metadata>
Created by potrace 1.11, written by Peter Selinger 2001-2013
</metadata>
<g transform="translate(0.000000,250.000000) scale(0.100000,-0.100000)"
fill="#000000" stroke="none">
<path d="M1138 2245 c-2 -2 -23 -6 -48 -10 -25 -3 -53 -8 -62 -11 -9 -3 -25
-6 -35 -9 -65 -13 -273 -106 -308 -138 -8 -6 -30 -23 -50 -37 -43 -29 -205
-189 -205 -202 0 -5 -6 -16 -13 -24 -40 -48 -48 -62 -92 -153 -77 -161 -106
-297 -100 -481 2 -69 6 -136 10 -150 3 -14 8 -36 11 -50 15 -75 55 -181 97
-259 154 -284 417 -475 737 -535 72 -14 297 -16 346 -3 12 3 37 8 55 11 85 13
294 101 340 142 8 8 21 14 27 14 7 0 12 4 12 8 0 4 12 15 28 24 44 26 174 160
217 224 22 32 42 61 45 64 3 3 22 39 42 80 41 86 84 218 97 305 9 58 8 288 -2
331 -41 173 -85 282 -162 399 -123 186 -298 323 -520 406 -56 21 -59 22 -170
43 -59 12 -288 20 -297 11z"/>
</g>
</svg>
